<svg xmlns="http://www.w3.org/2000/svg" viewBox="0 0 200 200" xmlns:v="https://vecta.io/nano"><rect x="7" y="7" width="186" height="186" rx="93" fill="#3aae97" opacity=".238"/><g fill="#ea6c00"><path d="M58.9,82.1,100,162.4,31,82.1Z"/><path d="M141.1,82.1,100,162.4l69-80.3Z"/></g><path d="M58.9,82.1H141l-41,80.3Z" fill="#fdad00"/><g fill="#fdd231"><path d="M100 37.6l-38.9 4.1-2.2 40.4z"/><path d="M100,37.6l38.9,4.1L141,82.1Z"/></g><path d="M169 82.1l-30.1-40.4 2.2 40.4zm-138 0l30.1-40.4-2.2 40.4z" fill="#fdad00"/><path d="M100,37.6,58.9,82.1H141Z" fill="#feeeb7"/><g style="mix-blend-mode:color" fill="#3aae97"><path d="M58.9,82.1,100,162.4,31,82.1Z"/><path d="M141.1,82.1,100,162.4l69-80.3Z"/><path d="M58.9,82.1H141l-41,80.3Z"/><path d="M100 37.6l-38.9 4.1-2.2 40.4z"/><path d="M100,37.6l38.9,4.1L141,82.1Z"/><path d="M169 82.1l-30.1-40.4 2.2 40.4zm-138 0l30.1-40.4-2.2 40.4z"/><path d="M100,37.6,58.9,82.1H141Z"/></g></svg>