<svg width="356.401" height="92.501" viewBox="0 0 356.401 92.501" xmlns="http://www.w3.org/2000/svg"><g id="svgGroup" stroke-linecap="round" fill-rule="evenodd" font-size="9pt" stroke="#000" stroke-width="0.25mm" fill="#000" style="stroke:#000;stroke-width:0.25mm;fill:#000"><path d="M 162.5 35 L 162.1 34.6 Q 162.2 31.2 164.3 28.35 Q 166.4 25.5 169.7 23.8 A 15.298 15.298 0 0 1 173.864 22.339 A 13.585 13.585 0 0 1 176.4 22.1 A 10.684 10.684 0 0 1 179.976 22.68 A 9.44 9.44 0 0 1 182.9 24.35 A 6.627 6.627 0 0 1 185.023 27.697 Q 185.414 29.052 185.414 30.75 A 15.615 15.615 0 0 1 185.4 31.4 Q 185.3 33.5 184.65 36.7 A 130.095 130.095 0 0 1 184.099 39.269 Q 183.843 40.409 183.544 41.667 A 246.996 246.996 0 0 1 182.9 44.3 Q 182.247 46.914 181.55 50.182 A 243.032 243.032 0 0 0 181.45 50.65 A 37.615 37.615 0 0 0 180.912 53.835 Q 180.7 55.559 180.7 57.1 A 11.277 11.277 0 0 0 180.776 58.447 Q 180.857 59.127 181.029 59.692 A 4.917 4.917 0 0 0 181.4 60.6 Q 182.004 61.721 183.277 61.875 A 3.518 3.518 0 0 0 183.7 61.9 Q 185.8 61.9 188.35 59.55 Q 190.9 57.2 192.8 51.85 A 30.792 30.792 0 0 0 193.917 47.752 Q 194.36 45.597 194.631 43.058 A 75.649 75.649 0 0 0 195 37.6 Q 195.282 31.212 194.24 28.089 A 8.749 8.749 0 0 0 194.1 27.7 L 194.1 27.2 A 7.797 7.797 0 0 1 195.069 25.994 Q 195.81 25.231 196.85 24.5 A 17.655 17.655 0 0 1 200.153 22.685 A 20.19 20.19 0 0 1 201 22.35 A 14.752 14.752 0 0 1 203.09 21.74 A 10.792 10.792 0 0 1 205.3 21.5 A 6.071 6.071 0 0 1 209.566 23.244 A 9.429 9.429 0 0 1 210.75 24.6 A 8.196 8.196 0 0 1 211.839 26.781 Q 212.913 29.929 212.7 35.4 A 41.567 41.567 0 0 1 211.763 43.282 A 34.069 34.069 0 0 1 210.05 48.8 A 38.949 38.949 0 0 1 205.779 56.65 A 34.717 34.717 0 0 1 203.7 59.3 A 40.952 40.952 0 0 1 197.008 65.519 A 37.17 37.17 0 0 1 195.15 66.8 A 42.068 42.068 0 0 1 188.685 70.24 A 36.821 36.821 0 0 1 185.7 71.35 Q 180.9 72.9 176.7 72.9 A 17.841 17.841 0 0 1 172.88 72.515 Q 169.692 71.816 167.5 69.85 A 9.457 9.457 0 0 1 164.872 65.739 Q 164.1 63.45 164.1 60.4 Q 164.1 56.7 165.05 52.5 A 213.251 213.251 0 0 1 165.93 48.76 Q 166.36 47.004 166.78 45.442 A 127.292 127.292 0 0 1 166.9 45 A 157.981 157.981 0 0 0 167.526 42.713 Q 168.006 40.9 168.35 39.4 Q 168.807 37.404 168.885 36.169 A 7.561 7.561 0 0 0 168.9 35.7 A 5.768 5.768 0 0 0 168.846 34.882 Q 168.706 33.906 168.2 33.4 A 2.311 2.311 0 0 0 166.531 32.7 A 2.839 2.839 0 0 0 166.5 32.7 A 4.452 4.452 0 0 0 163.183 34.161 A 6.856 6.856 0 0 0 162.5 35 Z M 18.292 72.408 A 10.159 10.159 0 0 0 21.5 72.9 A 12.373 12.373 0 0 0 23.431 72.746 A 14.923 14.923 0 0 0 26.25 72 Q 28.7 71.1 30.5 69.2 Q 30.7 59.3 31.45 49.7 A 347.876 347.876 0 0 1 32.069 42.676 A 285.232 285.232 0 0 1 33.35 31.75 A 458.769 458.769 0 0 1 34.064 26.761 Q 34.418 24.381 34.768 22.23 A 244.063 244.063 0 0 1 35.6 17.4 Q 38.7 17.8 41.45 18.15 A 54.914 54.914 0 0 0 43.086 18.335 Q 43.862 18.41 44.556 18.451 A 26.273 26.273 0 0 0 46.1 18.5 Q 48.406 18.5 50.175 18.01 A 8.75 8.75 0 0 0 52.6 16.95 Q 55 15.4 56.1 13.05 Q 57.2 10.7 57.2 8.2 Q 57.2 5.4 56 3.05 A 7.585 7.585 0 0 0 55.471 2.163 A 5.452 5.452 0 0 0 52.6 0 A 6.315 6.315 0 0 1 52.423 0.203 Q 51.546 1.169 50.253 1.794 A 10.158 10.158 0 0 1 48.25 2.5 A 23.312 23.312 0 0 1 45.162 3.03 A 31.742 31.742 0 0 1 41.8 3.2 A 61.394 61.394 0 0 1 37.816 3.066 A 77.741 77.741 0 0 1 32.3 2.5 Q 27.2 1.8 22.25 1.15 Q 17.3 0.5 13.3 0.5 A 33.13 33.13 0 0 0 13.084 0.501 Q 9.744 0.523 7.4 1.221 A 9.818 9.818 0 0 0 4.95 2.3 A 8.29 8.29 0 0 0 2.091 5.39 A 11.826 11.826 0 0 0 1.05 8.05 A 25.774 25.774 0 0 0 0.504 10.703 Q 0.25 12.332 0.124 14.246 A 62.005 62.005 0 0 0 0 18.3 A 11.972 11.972 0 0 1 2.387 16.689 A 14.414 14.414 0 0 1 5.65 15.5 Q 9 14.7 13.2 14.7 Q 14.6 14.7 16.3 14.8 A 62.458 62.458 0 0 1 16.727 14.827 A 68.514 68.514 0 0 1 19.8 15.1 A 796.675 796.675 0 0 0 19.693 15.784 Q 19.317 18.197 18.908 20.914 A 1367.464 1367.464 0 0 0 18.05 26.7 Q 17.1 33.2 16.2 40.25 Q 15.3 47.3 14.65 54.1 Q 14 60.9 13.8 66.5 Q 13.7 69.7 16.05 71.3 A 8.967 8.967 0 0 0 18.292 72.408 Z M 300.5 27.2 L 300.7 27.8 A 1.915 1.915 0 0 0 300.305 28.347 Q 299.784 29.346 299.358 31.718 A 42.236 42.236 0 0 0 299.15 33 Q 298.652 36.369 298.008 41.731 A 745.271 745.271 0 0 0 297.6 45.2 A 435.08 435.08 0 0 1 297.018 49.746 Q 296.709 52.062 296.347 54.619 A 728.238 728.238 0 0 1 296.1 56.35 Q 295.2 62.6 293.65 68.95 A 65.77 65.77 0 0 1 291.07 77.209 A 56.627 56.627 0 0 1 289.6 80.65 A 28.725 28.725 0 0 1 286.8 85.441 A 22.221 22.221 0 0 1 283.3 89.25 A 13.478 13.478 0 0 1 275.016 92.476 A 17.288 17.288 0 0 1 274.1 92.5 A 13.6 13.6 0 0 1 270.268 91.984 A 10.779 10.779 0 0 1 266 89.6 A 9.442 9.442 0 0 1 263.12 84.514 A 14.298 14.298 0 0 1 262.8 81.4 Q 262.8 77.314 264.855 72.201 A 47.874 47.874 0 0 1 266.8 68 Q 266.1 68.2 265.4 68.3 Q 264.7 68.4 264 68.4 Q 258.2 68.4 254.25 63.35 A 17.032 17.032 0 0 1 251.415 57.748 Q 250.683 55.342 250.432 52.455 A 36.374 36.374 0 0 1 250.3 49.3 Q 250.3 41.2 253.45 35 Q 256.6 28.8 261.5 25.3 A 19.701 19.701 0 0 1 266.182 22.788 A 15.961 15.961 0 0 1 271.7 21.8 Q 275.4 21.8 278.4 23.65 A 11.19 11.19 0 0 1 281.334 26.322 Q 282.432 27.726 283.3 29.6 Q 283.4 28.6 283.4 27.8 L 283.4 26.3 A 2.22 2.22 0 0 1 284.03 24.772 Q 284.649 24.092 285.878 23.553 A 9.906 9.906 0 0 1 286 23.5 Q 288.6 22.4 291.8 22.4 A 13.45 13.45 0 0 1 296.329 23.154 A 12.712 12.712 0 0 1 297.2 23.5 A 5.898 5.898 0 0 1 299.364 25.077 A 5.937 5.937 0 0 1 300.5 27.2 Z M 156.4 26.8 L 156.6 27.4 A 47.062 47.062 0 0 0 155.7 29.58 Q 154.95 31.525 154.2 33.9 A 117.388 117.388 0 0 0 152.253 40.818 A 130.149 130.149 0 0 0 152 41.85 A 97.598 97.598 0 0 0 150.556 48.959 A 88.43 88.43 0 0 0 150.4 49.95 Q 149.8 53.9 149.8 56.9 A 24.505 24.505 0 0 0 149.843 58.4 Q 149.972 60.508 150.5 61.45 A 3.646 3.646 0 0 0 150.881 62.011 Q 151.124 62.301 151.396 62.469 A 1.505 1.505 0 0 0 152.2 62.7 A 2.574 2.574 0 0 0 153.726 62.174 Q 154.531 61.594 155.255 60.377 A 10.342 10.342 0 0 0 155.3 60.3 L 156.1 60.7 Q 156.1 64.1 153.9 66.9 Q 151.7 69.7 148.4 71.35 A 15.892 15.892 0 0 1 144.688 72.684 A 13.476 13.476 0 0 1 141.8 73 Q 138.3 73 135.7 70.7 A 6.904 6.904 0 0 1 133.834 67.907 Q 133.1 65.963 133.1 63.2 L 133.1 62.2 Q 133.1 61.7 133.2 61.2 A 35.704 35.704 0 0 1 131.049 64.953 Q 128.911 68.18 126.45 70.05 A 15.812 15.812 0 0 1 123.52 71.838 Q 121.219 72.9 118.9 72.9 A 10.022 10.022 0 0 1 113.588 71.352 A 13.155 13.155 0 0 1 112.3 70.45 Q 109.515 68.249 107.698 64.151 A 25.565 25.565 0 0 1 107.3 63.2 Q 105.621 58.958 105.426 53.153 A 46.239 46.239 0 0 1 105.4 51.6 Q 105.4 44.6 107.35 39.1 A 33.493 33.493 0 0 1 109.734 33.808 A 26.228 26.228 0 0 1 112.5 29.8 A 25.641 25.641 0 0 1 116.042 26.307 A 20.378 20.378 0 0 1 119.5 24.05 Q 123.3 22.1 126.9 22.1 Q 130.9 22.1 134.1 24.55 A 10.412 10.412 0 0 1 136.868 27.834 Q 137.64 29.229 138.158 30.983 A 21.076 21.076 0 0 1 138.5 32.3 Q 138.8 30.6 138.95 29.2 Q 139.08 27.988 139.097 27.451 A 4.686 4.686 0 0 0 139.1 27.3 A 4.379 4.379 0 0 1 139.749 25.084 Q 140.265 24.266 141.189 23.671 A 6.557 6.557 0 0 1 141.85 23.3 A 12.862 12.862 0 0 1 146.86 22.023 A 15.24 15.24 0 0 1 147.7 22 Q 150.5 22 153 23.1 A 6.006 6.006 0 0 1 156.312 26.56 A 7.392 7.392 0 0 1 156.4 26.8 Z M 58.2 35.4 L 57.6 35 A 5.819 5.819 0 0 1 57.589 34.637 Q 57.589 33.156 58.3 31.2 A 13.509 13.509 0 0 1 59.825 28.246 A 16.637 16.637 0 0 1 60.8 26.95 A 13.436 13.436 0 0 1 63.735 24.339 A 16.407 16.407 0 0 1 65.15 23.5 Q 67.8 22.1 71.4 22.1 A 14.491 14.491 0 0 1 74.287 22.368 Q 77.411 23.004 79.1 25.15 A 11.181 11.181 0 0 1 81.44 31.171 A 14.42 14.42 0 0 1 81.5 32.5 Q 81.5 33.2 81.45 33.95 A 19.586 19.586 0 0 1 81.324 35.224 A 17.879 17.879 0 0 1 81.3 35.4 A 51.173 51.173 0 0 1 84.02 30.996 Q 86.366 27.62 88.85 25.45 Q 91.317 23.295 93.57 22.486 A 7.76 7.76 0 0 1 96.2 22 A 6.444 6.444 0 0 1 98.117 22.269 A 4.844 4.844 0 0 1 100.9 24.5 A 10.321 10.321 0 0 1 102.189 28.016 A 14.016 14.016 0 0 1 102.4 30.5 A 17.662 17.662 0 0 1 101.637 35.561 A 20.939 20.939 0 0 1 101.15 37 A 14.06 14.06 0 0 1 99.009 40.816 A 12.715 12.715 0 0 1 97.45 42.45 A 8.22 8.22 0 0 1 92.014 44.502 Q 91.912 44.504 91.809 44.504 A 10.821 10.821 0 0 1 91.5 44.5 L 91.1 44.3 A 7.124 7.124 0 0 0 90.814 42.505 A 5.138 5.138 0 0 0 89.4 40.2 A 5.78 5.78 0 0 0 87.868 39.149 A 4.885 4.885 0 0 0 85.8 38.7 A 5.604 5.604 0 0 0 82.756 39.627 Q 81.723 40.282 80.75 41.4 Q 78.849 43.585 78.486 47.34 A 19.348 19.348 0 0 0 78.4 49.2 A 31.549 31.549 0 0 0 78.622 52.846 A 40.652 40.652 0 0 0 79.1 55.9 Q 79.8 59.5 79.8 62 Q 79.8 65 78.4 67.5 A 11.721 11.721 0 0 1 76.278 70.272 A 10.498 10.498 0 0 1 74.8 71.45 Q 72.6 72.9 70 72.9 A 8.259 8.259 0 0 1 64.592 70.882 A 11.494 11.494 0 0 1 63.6 69.95 A 9.625 9.625 0 0 1 61.355 65.924 Q 60.922 64.424 60.827 62.629 A 19.499 19.499 0 0 1 60.8 61.6 A 26.836 26.836 0 0 1 60.915 59.191 Q 61.026 57.965 61.243 56.614 A 46 46 0 0 1 61.4 55.7 A 143.497 143.497 0 0 1 62.775 49.058 A 155.573 155.573 0 0 1 62.8 48.95 Q 63.6 45.5 64.2 42.45 Q 64.8 39.4 64.8 37.4 A 9.557 9.557 0 0 0 64.714 36.071 Q 64.545 34.875 64.05 34.05 A 3.228 3.228 0 0 0 63.565 33.418 A 2.009 2.009 0 0 0 62.1 32.8 A 3.243 3.243 0 0 0 60.542 33.228 Q 59.389 33.855 58.2 35.4 Z M 327.3 73.2 Q 319.8 73.2 314.9 70.2 Q 310 67.2 307.65 62.25 Q 305.3 57.3 305.3 51.7 A 30.298 30.298 0 0 1 307 41.804 A 34.448 34.448 0 0 1 307.25 41.1 Q 309.2 35.8 312.95 31.45 Q 316.7 27.1 322.1 24.45 A 25.682 25.682 0 0 1 329.877 22.113 A 33.047 33.047 0 0 1 334.5 21.8 A 30.357 30.357 0 0 1 339.752 22.229 Q 343.819 22.944 346.85 24.85 Q 351.7 27.9 354.05 32.9 Q 356.4 37.9 356.4 43.6 A 30.152 30.152 0 0 1 354.893 52.902 A 34.536 34.536 0 0 1 354.5 54.05 Q 352.6 59.3 348.85 63.65 Q 345.1 68 339.7 70.6 A 26.027 26.027 0 0 1 331.974 72.886 A 33.632 33.632 0 0 1 327.3 73.2 Z M 219.3 35.4 L 218.6 35 A 14.768 14.768 0 0 1 219.478 31.181 A 12.291 12.291 0 0 1 221.15 28.15 Q 223.3 25.3 226.45 23.7 A 15.197 15.197 0 0 1 229.783 22.452 A 12.457 12.457 0 0 1 232.7 22.1 Q 236.5 22.1 239.3 24.55 Q 241.514 26.487 241.977 30.33 A 18.144 18.144 0 0 1 242.1 32.5 A 25.76 25.76 0 0 1 241.691 36.982 A 31.672 31.672 0 0 1 241.15 39.45 Q 240.2 43.1 238.95 46.7 Q 237.7 50.3 236.75 53.4 Q 235.8 56.5 235.8 58.7 A 7.604 7.604 0 0 0 235.853 59.632 Q 235.999 60.813 236.55 61.4 Q 237.3 62.2 238.2 62.2 Q 239.1 62.2 239.95 61.65 A 4.623 4.623 0 0 0 240.587 61.159 Q 240.933 60.838 241.155 60.475 A 2.822 2.822 0 0 0 241.2 60.4 L 241.9 60.6 A 11.818 11.818 0 0 1 241.354 64.251 A 10.264 10.264 0 0 1 239.95 67.05 Q 238 69.8 235.1 71.35 A 12.83 12.83 0 0 1 230.542 72.815 A 12.195 12.195 0 0 1 229.1 72.9 A 10.207 10.207 0 0 1 222.344 70.361 A 13.046 13.046 0 0 1 222.1 70.15 A 8.336 8.336 0 0 1 219.824 66.7 Q 219.322 65.326 219.126 63.621 A 20.33 20.33 0 0 1 219 61.3 A 22.839 22.839 0 0 1 219.47 56.601 A 20.094 20.094 0 0 1 219.95 54.75 Q 220.9 51.7 222.15 48.8 A 84.191 84.191 0 0 0 223.856 44.534 A 74.436 74.436 0 0 0 224.35 43.15 A 17.036 17.036 0 0 0 225.251 38.926 A 15.487 15.487 0 0 0 225.3 37.7 Q 225.3 35.649 224.716 34.583 A 2.663 2.663 0 0 0 224.5 34.25 A 3.163 3.163 0 0 0 223.943 33.674 A 2.122 2.122 0 0 0 222.6 33.2 Q 221.336 33.2 220.127 34.417 A 8.414 8.414 0 0 0 219.3 35.4 Z M 330 64.7 A 4.745 4.745 0 0 0 333.448 63.222 A 7.809 7.809 0 0 0 334.5 61.9 A 16.623 16.623 0 0 0 335.947 59.044 Q 336.518 57.608 336.937 55.91 A 31.037 31.037 0 0 0 337.2 54.75 Q 338.1 50.4 338.1 45.9 A 38.195 38.195 0 0 0 337.746 40.613 A 33.103 33.103 0 0 0 337.35 38.35 Q 336.743 35.476 335.644 33.454 A 11.697 11.697 0 0 0 335.1 32.55 A 5.784 5.784 0 0 0 333.991 31.292 A 4.241 4.241 0 0 0 331.2 30.3 A 4.586 4.586 0 0 0 328.111 31.506 Q 327.477 32.059 326.911 32.865 A 10.008 10.008 0 0 0 326.75 33.1 A 16.448 16.448 0 0 0 325.225 36.055 Q 324.478 37.916 324 40.2 Q 323.1 44.5 323.1 49.1 A 38.195 38.195 0 0 0 323.455 54.387 A 33.103 33.103 0 0 0 323.85 56.65 Q 324.457 59.524 325.556 61.546 A 11.697 11.697 0 0 0 326.1 62.45 A 5.784 5.784 0 0 0 327.21 63.708 A 4.241 4.241 0 0 0 330 64.7 Z M 125.5 60.3 A 3.688 3.688 0 0 0 127.298 59.781 Q 128.636 59.035 130.101 57.214 A 23.711 23.711 0 0 0 131.25 55.65 A 27.588 27.588 0 0 0 133.315 51.975 Q 135.191 48.009 136.7 42.3 Q 136.9 41.4 137.1 40.55 A 16.206 16.206 0 0 0 137.344 39.303 A 14.385 14.385 0 0 0 137.4 38.9 Q 135.8 35.2 134.05 33.65 A 7.781 7.781 0 0 0 132.914 32.804 Q 132.229 32.391 131.553 32.221 A 3.881 3.881 0 0 0 130.6 32.1 A 4.901 4.901 0 0 0 127.898 32.938 Q 127.174 33.407 126.485 34.138 A 10.866 10.866 0 0 0 125.95 34.75 A 18.285 18.285 0 0 0 123.892 37.947 Q 123.096 39.5 122.47 41.341 A 29.936 29.936 0 0 0 122.45 41.4 Q 121.1 45.4 121.1 49.4 Q 121.1 54.165 122.038 56.829 A 8.783 8.783 0 0 0 122.35 57.6 A 7.91 7.91 0 0 0 122.972 58.717 Q 123.349 59.274 123.774 59.635 A 2.606 2.606 0 0 0 125.5 60.3 Z M 270.8 56.9 A 4.464 4.464 0 0 0 272.869 56.34 Q 274.412 55.534 276.113 53.568 A 25.38 25.38 0 0 0 277.25 52.15 Q 279.793 48.747 281.592 43.215 A 59.334 59.334 0 0 0 282.9 38.5 A 30.077 30.077 0 0 0 281.827 36.383 Q 280.686 34.35 279.524 33.207 A 7.665 7.665 0 0 0 279.25 32.95 A 7.842 7.842 0 0 0 277.972 32.011 Q 276.747 31.3 275.5 31.3 A 5.216 5.216 0 0 0 272.71 32.136 Q 271.728 32.745 270.8 33.8 Q 268.6 36.3 267.25 40.15 Q 265.9 44 265.9 48.1 A 20.312 20.312 0 0 0 266.037 50.539 Q 266.183 51.74 266.483 52.731 A 8.124 8.124 0 0 0 267.3 54.6 A 6.328 6.328 0 0 0 268.143 55.712 Q 268.786 56.378 269.543 56.671 A 3.454 3.454 0 0 0 270.8 56.9 Z M 269.6 81 Q 273 81 276.55 74.35 A 33.09 33.09 0 0 0 278.737 69.134 Q 280.553 63.628 281.471 55.848 A 106.745 106.745 0 0 0 281.5 55.6 Q 275.468 63.774 272.366 68.957 A 56.703 56.703 0 0 0 270.95 71.45 Q 268.202 76.62 268.014 78.969 A 4.143 4.143 0 0 0 268 79.3 A 2.61 2.61 0 0 0 268.076 79.96 Q 268.349 81 269.6 81 Z M 233.036 18.58 A 10.675 10.675 0 0 0 236.1 19 Q 240.4 19 243.4 16.15 A 11.604 11.604 0 0 0 243.607 15.948 A 9.07 9.07 0 0 0 246.4 9.3 A 10.616 10.616 0 0 0 246.399 9.127 A 8.308 8.308 0 0 0 243.85 3.1 A 8.409 8.409 0 0 0 240.41 1.043 A 10.446 10.446 0 0 0 237.3 0.6 Q 233 0.6 230 3.5 A 11.922 11.922 0 0 0 229.816 3.682 A 9.229 9.229 0 0 0 227 10.4 A 10.571 10.571 0 0 0 227.003 10.63 A 8.134 8.134 0 0 0 229.55 16.55 A 8.447 8.447 0 0 0 233.036 18.58 Z" vector-effect="non-scaling-stroke"/></g></svg>